<?xml version="1.0" encoding="utf-8"?>
<!-- Generator: Adobe Illustrator 24.1.0, SVG Export Plug-In . SVG Version: 6.00 Build 0)  -->
<svg version="1.1" id="Layer_1" xmlns="http://www.w3.org/2000/svg" xmlns:xlink="http://www.w3.org/1999/xlink" x="0px" y="0px"
	 viewBox="0 0 460.21 507.02" style="enable-background:new 0 0 460.21 507.02;" xml:space="preserve">
<style type="text/css">
	.st0{fill:url(#SVGID_1_);}
	.st1{fill:url(#SVGID_2_);}
	.st2{fill:url(#SVGID_3_);}
	.st3{fill:url(#SVGID_4_);}
	.st4{fill:url(#SVGID_5_);}
	.st5{fill:url(#SVGID_6_);}
	.st6{fill:url(#SVGID_7_);}
	.st7{fill:url(#SVGID_8_);}
	.st8{fill:url(#SVGID_9_);}
</style>
<g>
	<linearGradient id="SVGID_1_" gradientUnits="userSpaceOnUse" x1="4.5363" y1="341.9157" x2="455.8884" y2="341.9157">
		<stop  offset="0" style="stop-color:#1D96D5"/>
		<stop  offset="0.5121" style="stop-color:#5AC4F5"/>
		<stop  offset="1" style="stop-color:#87F5FB"/>
	</linearGradient>
	<path class="st0" d="M174.65,379.82c1.26-2.5,1.97-5.28,1.97-8.17V294.6c4.19-4.22,18.4-9.48,34.74-13.31
		c-14.49-4.42-26.31-14.93-32.54-28.54c-20.7,7.83-38.65,20.28-38.65,39.94v68.66l-88.59,50.54l33.22,19.18l15.85-9.04l73.51-41.94
		L174.65,379.82z"/>
	<linearGradient id="SVGID_2_" gradientUnits="userSpaceOnUse" x1="4.5363" y1="225.8669" x2="455.8884" y2="225.8669">
		<stop  offset="0" style="stop-color:#1D96D5"/>
		<stop  offset="0.5121" style="stop-color:#5AC4F5"/>
		<stop  offset="1" style="stop-color:#87F5FB"/>
	</linearGradient>
	<polygon class="st1" points="367.02,270.48 455.89,219.79 455.89,181.25 367.06,231.92 	"/>
	<linearGradient id="SVGID_3_" gradientUnits="userSpaceOnUse" x1="4.5363" y1="420.256" x2="455.8884" y2="420.256">
		<stop  offset="0" style="stop-color:#1D96D5"/>
		<stop  offset="0.5121" style="stop-color:#5AC4F5"/>
		<stop  offset="1" style="stop-color:#87F5FB"/>
	</linearGradient>
	<path class="st2" d="M191.56,492.71c5.17,2.98,10.6,5.28,16.17,6.98l245.65-140.14c1.57-6.05,2.42-12.33,2.48-18.73L190.6,492.15
		L191.56,492.71z"/>
	<linearGradient id="SVGID_4_" gradientUnits="userSpaceOnUse" x1="4.4253" y1="439.9323" x2="455.7775" y2="439.9323">
		<stop  offset="0" style="stop-color:#1D96D5"/>
		<stop  offset="0.5121" style="stop-color:#5AC4F5"/>
		<stop  offset="1" style="stop-color:#87F5FB"/>
	</linearGradient>
	<path class="st3" d="M230.21,503.07c13.35,0,26.69-3.45,38.65-10.36l74.19-42.83h0l74.19-42.83c11.96-6.9,21.62-16.74,28.3-28.3
		c0.37-0.64,0.7-1.31,1.05-1.96L225.5,502.92C227.07,503.01,228.64,503.07,230.21,503.07z"/>
	<linearGradient id="SVGID_5_" gradientUnits="userSpaceOnUse" x1="4.5363" y1="303.5707" x2="455.8884" y2="303.5707">
		<stop  offset="0" style="stop-color:#1D96D5"/>
		<stop  offset="0.5121" style="stop-color:#5AC4F5"/>
		<stop  offset="1" style="stop-color:#87F5FB"/>
	</linearGradient>
	<path class="st4" d="M391.93,288.06l-67.15,35.97v-37.41c0-11.14-6.29-26.16-36.23-34.48c-1.96-0.55-3.92-1.03-5.85-1.47
		c-3.4,8.56-8.99,16.01-16.1,21.64c19.42,2.6,33.88,9.31,33.88,14.3v57.7c0,4.27,2.24,8.23,5.91,10.42
		c1.92,1.15,4.08,1.73,6.24,1.73c1.97,0,3.94-0.48,5.74-1.44l35.03-18.77c-0.18,0.23-0.37,0.45-0.56,0.68l11.02-6.29l43.71-24.93
		l48.32-27.57v-23.72v-2.52l-61.8,35.26C393.36,287.4,392.63,287.68,391.93,288.06z"/>
	<linearGradient id="SVGID_6_" gradientUnits="userSpaceOnUse" x1="4.5363" y1="392.519" x2="455.8884" y2="392.519">
		<stop  offset="0" style="stop-color:#1D96D5"/>
		<stop  offset="0.5121" style="stop-color:#5AC4F5"/>
		<stop  offset="1" style="stop-color:#87F5FB"/>
	</linearGradient>
	<polygon class="st5" points="176.83,484.21 455.89,325.01 455.89,300.83 155.76,472.04 	"/>
	<linearGradient id="SVGID_7_" gradientUnits="userSpaceOnUse" x1="4.5363" y1="198.3322" x2="455.8884" y2="198.3322">
		<stop  offset="0" style="stop-color:#1D96D5"/>
		<stop  offset="0.5121" style="stop-color:#5AC4F5"/>
		<stop  offset="1" style="stop-color:#87F5FB"/>
	</linearGradient>
	<path class="st6" d="M93.34,297.11l0.09-85.62c0.02-22.39,11.99-43.08,31.4-54.25l74.19-42.73c19.41-11.18,43.3-11.15,62.68,0.06
		l74.1,42.88c14.72,8.52,25.13,22.52,29.28,38.57l87.39-49.86c-1.72-5.6-4.02-10.99-6.93-16.04c-6.67-11.56-16.34-21.39-28.3-28.3
		L343.05,59v0l0,0l-74.19-42.83c-11.96-6.91-25.31-10.36-38.65-10.36c-13.35,0-26.69,3.45-38.65,10.36L117.37,59l0,0v0l-74.19,42.83
		c-11.96,6.9-21.62,16.74-28.3,28.3c-6.67,11.56-10.36,24.84-10.36,38.65v85.66v85.66c0,13.81,3.68,27.09,10.36,38.65
		c2.48,4.29,5.37,8.35,8.64,12.1l87.59-49.97C99.87,329.33,93.33,313.69,93.34,297.11z"/>
	<linearGradient id="SVGID_8_" gradientUnits="userSpaceOnUse" x1="4.5363" y1="428.6066" x2="455.8884" y2="428.6066">
		<stop  offset="0" style="stop-color:#1D96D5"/>
		<stop  offset="0.5121" style="stop-color:#5AC4F5"/>
		<stop  offset="1" style="stop-color:#87F5FB"/>
	</linearGradient>
	<path class="st7" d="M202.64,396.38l-89.5,51.06l4.23,2.44h0l18.97,10.95l103.1-58.82C227.03,403.88,214.18,402.02,202.64,396.38z"
		/>
	<linearGradient id="SVGID_9_" gradientUnits="userSpaceOnUse" x1="4.5363" y1="213.734" x2="455.8884" y2="213.734">
		<stop  offset="0" style="stop-color:#1D96D5"/>
		<stop  offset="0.5121" style="stop-color:#5AC4F5"/>
		<stop  offset="1" style="stop-color:#87F5FB"/>
	</linearGradient>
	<path class="st8" d="M236.4,159.07h-12.12c-19.34,0-35.07,15.73-35.07,35.07v36.79c0,6.17,1.52,11.97,4.17,17.11
		c6.23,12.07,18.8,20.35,33.29,20.35h5.11h2.58c4.74,0,9.25-0.93,13.41-2.56c8.5-3.34,15.44-9.73,19.51-17.83
		c2.49-4.96,3.92-10.53,3.92-16.44v-37.68C271.21,174.68,255.6,159.07,236.4,159.07z"/>
</g>
</svg>
