<?xml version="1.0" encoding="utf-8"?>
<!-- Generator: Adobe Illustrator 25.2.1, SVG Export Plug-In . SVG Version: 6.00 Build 0)  -->
<svg version="1.1" id="Layer_1" xmlns="http://www.w3.org/2000/svg" xmlns:xlink="http://www.w3.org/1999/xlink" x="0px" y="0px"
	 viewBox="0 0 907 224" style="enable-background:new 0 0 907 224;" xml:space="preserve">
<style type="text/css">
	.st0{fill:#FFFFFF;}
	.st1{fill:url(#SVGID_1_);}
	.st2{fill:url(#SVGID_2_);}
	.st3{fill:url(#SVGID_3_);}
	.st4{fill:url(#SVGID_4_);}
	.st5{fill:url(#SVGID_5_);}
	.st6{fill:url(#SVGID_6_);}
	.st7{fill:url(#SVGID_7_);}
	.st8{fill:url(#SVGID_8_);}
</style>
<g>
	<path class="st0" d="M243.6,155.9c0.9-1.1,1.8-2.4,2.7-3.5c1.8-2.4,3.8-3.8,6.4-1.6c1.3,1.1,14.5,13.8,30.7,13.8
		c14.7,0,24.4-9.3,24.4-20c0-12.5-10.9-20-31.8-28.7c-20-8.7-32-16.9-32-37.6c0-12.4,9.8-32.4,38.7-32.4c17.8,0,31.1,9.3,31.1,9.3
		c1.1,0.5,3.3,2.7,1.1,6.2c-0.7,1.1-1.5,2.4-2.2,3.5c-1.6,2.5-3.5,3.3-6.4,1.6c-1.3-0.7-12.7-8.4-23.8-8.4
		c-19.3,0-25.1,12.4-25.1,20c0,12.2,9.3,19.3,24.5,25.6c24.5,10,40.4,19.3,40.4,40.4c0,18.9-18,32.7-39.3,32.7
		c-21.5,0-36-12.5-38.4-14.7C243.2,160.8,241.4,159.4,243.6,155.9z"/>
	<path class="st0" d="M344.8,105.7c0-1.8,1.6-3.5,3.5-3.5h5.8c1.8,0,3.5,1.6,3.5,3.5v38.4c0,13.8,6.2,20.5,16.4,20.5
		c13.8,0,21.6-10.4,21.6-10.4c0-4,0-8.2,0-48.5c0-1.8,1.6-3.5,3.5-3.5h5.6c1.8,0,3.5,1.6,3.5,3.5v65.8c0,1.8-1.6,3.5-3.5,3.5h-3.5
		c-2,0-2.7-1.3-3.3-3.1l-1.3-4.7c0,0-8.5,9.6-23.6,9.6c-21.1,0-28.2-13.6-28.2-32.9V105.7z"/>
	<path class="st0" d="M434.3,105.7c0-1.8,1.6-3.5,3.5-3.5h3.5c1.6,0,2.5,0.7,2.9,2.2l1.6,5.6c0,0,10.4-9.6,25.5-9.6
		c21.1,0,28.2,13.8,28.2,32.7v38.4c0,1.8-1.6,3.5-3.5,3.5h-5.8c-1.8,0-3.5-1.6-3.5-3.5v-38.4c0-13.8-6.2-20.5-16.4-20.5
		c-13.6,0-23.5,10.4-23.5,10.4v48.5c0,1.8-1.6,3.5-3.5,3.5h-5.6c-1.8,0-3.5-1.6-3.5-3.5V105.7z"/>
	<path class="st0" d="M525.1,51.2c0-1.8,1.6-3.5,3.5-3.5h5.6c1.8,0,3.5,1.6,3.5,3.5v54c0,0,7.5-4.7,19.5-4.7
		c21.8,0,34.9,16.7,34.9,38c0,20.9-14.5,38.4-33.1,38.4c-13.6,0-22.4-9.6-22.4-9.6l-1.1,4.9c-0.4,1.6-1.5,2.9-3.1,2.9h-3.8
		c-1.8,0-3.5-1.6-3.5-3.5V51.2z M557.7,165.4c13.3,0,21.6-12.5,21.6-26.7c0-14.5-8-26-23.8-26c-10,0-17.6,4.4-17.6,4.4v36.4
		C537.8,153.4,544.6,165.4,557.7,165.4z"/>
	<path class="st0" d="M614,105.7c0-1.8,1.6-3.5,3.5-3.5h3.5c1.5,0,2.7,0.9,3.1,2.5l1.5,5.3c0,0,6.7-9.6,21.8-9.6
		c5.5,0,14.5,0.9,12.7,6l-2.2,6.2c-0.9,2.4-2.5,2.4-4.4,1.6c-1.6-0.7-4.4-1.5-7.1-1.5c-13.8,0-19.8,10.2-19.8,10.2v48.5
		c0,1.8-1.6,3.5-3.5,3.5h-5.6c-1.8,0-3.5-1.6-3.5-3.5V105.7z"/>
	<path class="st0" d="M705.1,100.4c19.1,0,32.9,14.2,32.9,33.3c0,1.3-0.2,3.6-0.4,4.9c-0.2,1.8-1.6,3.1-3.3,3.1H682
		c0.7,12.2,11.5,23.6,24.4,23.6c7.6,0,13.8-2.9,18-5.5c2.5-1.5,3.6-2.4,5.1-0.4c1.1,1.5,2,2.7,3.1,4.2c1.3,1.6,2,2.7-0.7,4.7
		c-4.4,3.5-14.2,8.4-26.7,8.4c-22,0-35.6-17.3-35.6-38.2C669.4,118.1,683.1,100.4,705.1,100.4z M725.4,131.5
		c-0.5-10.5-9.3-20-20.4-20c-12.2,0-21.6,8.7-22.9,20H725.4z"/>
	<path class="st0" d="M782,128.8c7.8,0,15.5,2.4,15.5,2.4c0.2-13.5-1.5-19.6-11.8-19.6c-10,0-18.5,2.7-21.8,4
		c-1.8,0.7-2.9-0.2-3.5-1.8l-1.5-4.5c-0.7-2.2,0.4-3.3,2-4c1.1-0.5,11.6-4.7,25.3-4.7c18.5,0,23.1,9.5,23.1,30.7v40.4
		c0,1.8-1.6,3.5-3.5,3.5h-3.5c-2,0-2.5-1.1-3.1-2.7l-1.5-4.9c-3.8,3.8-11.3,9.5-22.5,9.5c-12.7,0-22.4-9.3-22.4-23.8
		C752.9,139.2,763.2,128.8,782,128.8z M777.2,165.9c9.1,0,16.9-5.6,20-10.2v-14.4c-2.2-1.3-7.3-2.9-15.3-2.9
		c-10.2,0-17.5,5.1-17.5,14.5C764.5,160.3,769.4,165.9,777.2,165.9z"/>
	<path class="st0" d="M835.2,51.2c0-1.8,1.6-3.5,3.5-3.5h5.6c1.8,0,3.5,1.6,3.5,3.5v78.7l30.9-25.5c1.5-1.3,2.9-2.2,4.4-2.2h9.8
		c3.1,0,2.9,3.5,1.6,4.5l-34.5,27.6l40.2,36c1.5,1.3,1.3,4.5-1.8,4.5h-10c-1.6,0-2.9-0.9-3.6-1.5l-36.9-35.1v33.1
		c0,1.8-1.6,3.5-3.5,3.5h-5.6c-1.8,0-3.5-1.6-3.5-3.5V51.2z"/>
</g>
<g>
	<linearGradient id="SVGID_1_" gradientUnits="userSpaceOnUse" x1="-26.2283" y1="123.2136" x2="156.8032" y2="228.8869">
		<stop  offset="0.3572" style="stop-color:#F05034"/>
		<stop  offset="0.6516" style="stop-color:#FF8B39"/>
		<stop  offset="1" style="stop-color:#FFEB42"/>
	</linearGradient>
	<path class="st1" d="M90.6,172.1l-38,21.7l1.9,1.1v0h0l8,4.6l43.7-24.9C100.9,175.3,95.4,174.5,90.6,172.1z"/>
	<linearGradient id="SVGID_2_" gradientUnits="userSpaceOnUse" x1="-5.3648" y1="87.077" x2="177.6667" y2="192.7502">
		<stop  offset="0.3572" style="stop-color:#F05034"/>
		<stop  offset="0.6516" style="stop-color:#FF8B39"/>
		<stop  offset="1" style="stop-color:#FFEB42"/>
	</linearGradient>
	<polygon class="st2" points="198.3,131.4 70.7,204.2 79.6,209.4 198.3,141.7 	"/>
	<linearGradient id="SVGID_3_" gradientUnits="userSpaceOnUse" x1="-11.9855" y1="98.5443" x2="171.046" y2="204.2176">
		<stop  offset="0.3572" style="stop-color:#F05034"/>
		<stop  offset="0.6516" style="stop-color:#FF8B39"/>
		<stop  offset="1" style="stop-color:#FFEB42"/>
	</linearGradient>
	<path class="st3" d="M100.2,217.4c0.7,0,1.4,0.1,2.1,0.1c5.7,0,11.3-1.5,16.4-4.4l31.5-18.2h0v0l31.5-18.2c5.1-2.9,9.2-7.1,12-12
		c0.2-0.3,0.3-0.6,0.5-1L100.2,217.4z"/>
	<linearGradient id="SVGID_4_" gradientUnits="userSpaceOnUse" x1="-9.0456" y1="93.4523" x2="173.9859" y2="199.1256">
		<stop  offset="0.3572" style="stop-color:#F05034"/>
		<stop  offset="0.6516" style="stop-color:#FF8B39"/>
		<stop  offset="1" style="stop-color:#FFEB42"/>
	</linearGradient>
	<path class="st4" d="M198.3,148.4L85.5,212.8l0.5,0.3c2.2,1.2,4.4,2.2,6.8,2.9l104.5-59.6C197.9,153.8,198.3,151.1,198.3,148.4z"/>
	<linearGradient id="SVGID_5_" gradientUnits="userSpaceOnUse" x1="35.4297" y1="16.4188" x2="218.4612" y2="122.0921">
		<stop  offset="0.3572" style="stop-color:#F05034"/>
		<stop  offset="0.6516" style="stop-color:#FF8B39"/>
		<stop  offset="1" style="stop-color:#FFEB42"/>
	</linearGradient>
	<polygon class="st5" points="160.5,118.5 198.3,97 198.3,80.6 160.6,102.1 	"/>
	<linearGradient id="SVGID_6_" gradientUnits="userSpaceOnUse" x1="11.3278" y1="58.1646" x2="194.3593" y2="163.8379">
		<stop  offset="0.3572" style="stop-color:#F05034"/>
		<stop  offset="0.6516" style="stop-color:#FF8B39"/>
		<stop  offset="1" style="stop-color:#FFEB42"/>
	</linearGradient>
	<path class="st6" d="M44.2,129.9l0-36.4c0-9.5,5.1-18.3,13.3-23.1l31.5-18.2c8.2-4.8,18.4-4.7,26.6,0l31.5,18.2
		c6.2,3.6,10.6,9.5,12.4,16.3l37.1-21.2c-0.7-2.4-1.7-4.6-2.9-6.7c-2.8-4.9-6.9-9.1-12-12l-31.5-18.2v0l0,0l-31.5-18.2
		c-5.1-2.9-10.8-4.4-16.4-4.4C96.7,6.1,91,7.6,86,10.5L54.4,28.7l0,0v0L22.9,46.9c-5.1,2.9-9.2,7.1-12,12C8,63.9,6.5,69.5,6.5,75.4
		l0,36.4l0,36.4c0,5.9,1.6,11.5,4.4,16.4c1,1.8,2.3,3.5,3.6,5.1l37.2-21.2C47,143.6,44.2,136.9,44.2,129.9z"/>
	<linearGradient id="SVGID_7_" gradientUnits="userSpaceOnUse" x1="-27.6407" y1="125.66" x2="155.3908" y2="231.3333">
		<stop  offset="0.3572" style="stop-color:#F05034"/>
		<stop  offset="0.6516" style="stop-color:#FF8B39"/>
		<stop  offset="1" style="stop-color:#FFEB42"/>
	</linearGradient>
	<polygon class="st7" points="64.4,157 26.4,178.7 40.7,186.9 78.6,165.2 	"/>
	<linearGradient id="SVGID_8_" gradientUnits="userSpaceOnUse" x1="21.9957" y1="39.6872" x2="205.0272" y2="145.3605">
		<stop  offset="0.3572" style="stop-color:#F05034"/>
		<stop  offset="0.6516" style="stop-color:#FF8B39"/>
		<stop  offset="1" style="stop-color:#FFEB42"/>
	</linearGradient>
	<path class="st8" d="M154.4,147l43.9-25v-10.2v-1.2l-37.9,21.6C160,137.7,157.8,142.8,154.4,147z"/>
</g>
</svg>
