<?xml version="1.0" encoding="utf-8"?>
<!-- Generator: Adobe Illustrator 24.1.0, SVG Export Plug-In . SVG Version: 6.00 Build 0)  -->
<svg version="1.1" id="Layer_1" xmlns="http://www.w3.org/2000/svg" xmlns:xlink="http://www.w3.org/1999/xlink" x="0px" y="0px"
	 viewBox="0 0 460.21 507.02" style="enable-background:new 0 0 460.21 507.02;" xml:space="preserve">
<style type="text/css">
	.st0{fill:url(#SVGID_1_);}
	.st1{fill:url(#SVGID_2_);}
	.st2{fill:url(#SVGID_3_);}
	.st3{fill:url(#SVGID_4_);}
	.st4{fill:url(#SVGID_5_);}
	.st5{fill:url(#SVGID_6_);}
	.st6{fill:url(#SVGID_7_);}
	.st7{fill:url(#SVGID_8_);}
</style>
<g>
	<linearGradient id="SVGID_1_" gradientUnits="userSpaceOnUse" x1="-71.9666" y1="281.3262" x2="358.6718" y2="529.9554">
		<stop  offset="0.3572" style="stop-color:#F05034"/>
		<stop  offset="0.6516" style="stop-color:#FF8B39"/>
		<stop  offset="1" style="stop-color:#FFEB42"/>
	</linearGradient>
	<path class="st0" d="M202.88,396.29l-89.48,51.04l4.41,2.54v0h0l18.79,10.85l102.78-58.63
		C227.04,403.84,214.31,401.92,202.88,396.29z"/>
	<linearGradient id="SVGID_2_" gradientUnits="userSpaceOnUse" x1="-22.8787" y1="196.3035" x2="407.7596" y2="444.9327">
		<stop  offset="0.3572" style="stop-color:#F05034"/>
		<stop  offset="0.6516" style="stop-color:#FF8B39"/>
		<stop  offset="1" style="stop-color:#FFEB42"/>
	</linearGradient>
	<polygon class="st1" points="456.33,300.62 156.02,471.94 177.09,484.1 456.33,324.8 	"/>
	<linearGradient id="SVGID_3_" gradientUnits="userSpaceOnUse" x1="-38.4559" y1="223.284" x2="392.1824" y2="471.9132">
		<stop  offset="0.3572" style="stop-color:#F05034"/>
		<stop  offset="0.6516" style="stop-color:#FF8B39"/>
		<stop  offset="1" style="stop-color:#FFEB42"/>
	</linearGradient>
	<path class="st2" d="M225.6,502.9c1.68,0.11,3.37,0.17,5.05,0.17c13.35,0,26.69-3.45,38.65-10.36l74.19-42.83h0v0l74.19-42.83
		c11.96-6.9,21.62-16.74,28.3-28.3c0.43-0.74,0.8-1.5,1.21-2.25L225.6,502.9z"/>
	<linearGradient id="SVGID_4_" gradientUnits="userSpaceOnUse" x1="-31.539" y1="211.3036" x2="399.0994" y2="459.9327">
		<stop  offset="0.3572" style="stop-color:#F05034"/>
		<stop  offset="0.6516" style="stop-color:#FF8B39"/>
		<stop  offset="1" style="stop-color:#FFEB42"/>
	</linearGradient>
	<path class="st3" d="M456.31,340.61L190.85,492.05l1.15,0.66c5.09,2.94,10.45,5.22,15.94,6.9l245.94-140.3
		C455.43,353.27,456.27,347,456.31,340.61z"/>
	<linearGradient id="SVGID_5_" gradientUnits="userSpaceOnUse" x1="73.103" y1="30.0583" x2="503.7414" y2="278.6874">
		<stop  offset="0.3572" style="stop-color:#F05034"/>
		<stop  offset="0.6516" style="stop-color:#FF8B39"/>
		<stop  offset="1" style="stop-color:#FFEB42"/>
	</linearGradient>
	<polygon class="st4" points="367.46,270.28 456.33,219.58 456.33,181.04 367.5,231.71 	"/>
	<linearGradient id="SVGID_6_" gradientUnits="userSpaceOnUse" x1="16.3957" y1="128.2783" x2="447.0341" y2="376.9075">
		<stop  offset="0.3572" style="stop-color:#F05034"/>
		<stop  offset="0.6516" style="stop-color:#FF8B39"/>
		<stop  offset="1" style="stop-color:#FFEB42"/>
	</linearGradient>
	<path class="st5" d="M93.78,297.11l0.09-85.62c0.02-22.39,11.99-43.08,31.4-54.25l74.19-42.73c19.4-11.18,43.3-11.15,62.68,0.06
		l74.1,42.88c14.67,8.49,25.05,22.41,29.23,38.38l87.38-49.85c-1.71-5.54-4-10.87-6.88-15.86c-6.67-11.56-16.34-21.39-28.3-28.3
		L343.49,59v0l0,0L269.3,16.17C257.34,9.26,244,5.81,230.65,5.81c-13.35,0-26.69,3.45-38.65,10.36L117.81,59l0,0v0l-74.19,42.83
		c-11.96,6.9-21.62,16.74-28.3,28.3c-6.67,11.56-10.36,24.84-10.36,38.65l0,85.66l0,85.66c0,13.81,3.68,27.09,10.36,38.65
		c2.45,4.24,5.31,8.24,8.53,11.96l87.58-49.96C100.26,329.2,93.76,313.62,93.78,297.11z"/>
	<linearGradient id="SVGID_7_" gradientUnits="userSpaceOnUse" x1="-75.2898" y1="287.0822" x2="355.3485" y2="535.7114">
		<stop  offset="0.3572" style="stop-color:#F05034"/>
		<stop  offset="0.6516" style="stop-color:#FF8B39"/>
		<stop  offset="1" style="stop-color:#FFEB42"/>
	</linearGradient>
	<polygon class="st6" points="141.24,360.79 51.84,411.79 85.42,431.18 174.78,380.2 	"/>
	<linearGradient id="SVGID_8_" gradientUnits="userSpaceOnUse" x1="41.4953" y1="84.8044" x2="472.1337" y2="333.4336">
		<stop  offset="0.3572" style="stop-color:#F05034"/>
		<stop  offset="0.6516" style="stop-color:#FF8B39"/>
		<stop  offset="1" style="stop-color:#FFEB42"/>
	</linearGradient>
	<path class="st7" d="M353.02,337.26l103.31-58.93v-23.89v-2.73l-89.13,50.85C366.11,315.43,361.09,327.51,353.02,337.26z"/>
</g>
</svg>
